<?xml version="1.0" encoding="UTF-8"?>
<!DOCTYPE svg PUBLIC "-//W3C//DTD SVG 1.1//EN" "http://www.w3.org/Graphics/SVG/1.1/DTD/svg11.dtd">
<svg xmlns="http://www.w3.org/2000/svg" version="1.1" width="1024px" height="1024px" style="shape-rendering:geometricPrecision; text-rendering:geometricPrecision; image-rendering:optimizeQuality; fill-rule:evenodd; clip-rule:evenodd" xmlns:xlink="http://www.w3.org/1999/xlink">
<g><path style="opacity:1" fill="#fefefe" d="M -0.5,-0.5 C 340.833,-0.5 682.167,-0.5 1023.5,-0.5C 1023.5,340.833 1023.5,682.167 1023.5,1023.5C 682.167,1023.5 340.833,1023.5 -0.5,1023.5C -0.5,682.167 -0.5,340.833 -0.5,-0.5 Z"/></g>
<g><path style="opacity:1" fill="#0244ae" d="M 410.5,398.5 C 410.547,395.427 409.381,393.094 407,391.5C 400.263,395.453 393.43,399.286 386.5,403C 376.225,405.767 367.558,403.267 360.5,395.5C 356.764,390.373 353.264,385.04 350,379.5C 345.542,380.579 341.042,380.746 336.5,380C 327.269,376.718 318.269,372.884 309.5,368.5C 307.037,380.403 305.037,392.403 303.5,404.5C 303.833,405.5 304.167,406.5 304.5,407.5C 325.573,414.778 343.739,426.444 359,442.5C 367,454.5 375,466.5 383,478.5C 388.667,469.5 394.333,460.5 400,451.5C 411.666,437.829 425.499,434.995 441.5,443C 445.907,446.227 448.907,450.394 450.5,455.5C 453.11,464.496 453.11,473.496 450.5,482.5C 450.52,483.726 450.853,484.726 451.5,485.5C 446.45,511.581 440.95,537.581 435,563.5C 425.323,586.889 412.157,607.889 395.5,626.5C 395.565,626.062 395.399,625.728 395,625.5C 393,627.5 391,629.5 389,631.5C 388.026,629.122 387.359,629.456 387,632.5C 386.586,632.043 386.086,631.709 385.5,631.5C 384.289,632.274 384.289,633.107 385.5,634C 384.892,634.87 384.059,635.37 383,635.5C 379.936,634.385 377.103,632.885 374.5,631C 375.328,630.085 376.328,629.419 377.5,629C 375.633,628.289 374.133,628.789 373,630.5C 371.883,630.335 370.716,630.002 369.5,629.5C 368.592,628.21 368.759,626.877 370,625.5C 370.654,626.696 371.154,626.696 371.5,625.5C 371.098,623.509 370.431,621.676 369.5,620C 373.107,616.902 376.107,613.402 378.5,609.5C 391.508,592.999 401.841,574.833 409.5,555C 385.227,523.394 361.727,491.228 339,458.5C 328.597,447.512 316.43,439.846 302.5,435.5C 306.098,442.966 309.098,450.632 311.5,458.5C 314.258,467.357 317.592,476.023 321.5,484.5C 320.431,484.36 319.264,484.36 318,484.5C 316.887,485.76 316.72,486.927 317.5,488C 313.777,489.968 313.777,491.635 317.5,493C 316.833,493.333 316.167,493.667 315.5,494C 318.904,497.467 322.071,497.301 325,493.5C 324.535,495.787 324.368,497.953 324.5,500C 325.744,500.456 326.577,499.956 327,498.5C 332.622,511.053 337.622,523.72 342,536.5C 341.667,535.833 341.333,535.167 341,534.5C 339.414,535.376 337.914,536.376 336.5,537.5C 337.262,537.911 338.262,538.077 339.5,538C 337.343,539.085 337.176,540.251 339,541.5C 339.957,539.291 341.124,539.457 342.5,542C 339.833,542.667 339.833,543.333 342.5,544C 338.915,545.603 338.582,547.769 341.5,550.5C 340.609,551.59 339.609,551.59 338.5,550.5C 337.289,551.274 337.289,552.107 338.5,553C 336.616,553.216 334.949,553.883 333.5,555C 334.167,555.667 334.833,556.333 335.5,557C 334.107,558.171 333.273,559.671 333,561.5C 330.737,556.876 328.57,552.209 326.5,547.5C 327.522,546.646 328.355,545.646 329,544.5C 330.101,546.394 331.434,547.061 333,546.5C 333.456,545.256 332.956,544.423 331.5,544C 335.169,542.592 335.169,540.925 331.5,539C 329.302,538.627 327.135,538.127 325,537.5C 324.228,537.645 323.561,537.978 323,538.5C 322.392,536.934 321.558,535.6 320.5,534.5C 313.961,516.174 306.628,498.84 298.5,482.5C 295.593,476.31 292.76,469.977 290,463.5C 281.786,496.351 261.286,508.851 228.5,501C 204.707,487.567 196.873,467.734 205,441.5C 207.438,436.733 210.271,432.233 213.5,428C 212.878,426.431 212.544,424.764 212.5,423C 213.277,414.397 214.61,405.897 216.5,397.5C 210.191,397.041 204.191,395.707 198.5,393.5C 192.547,391.445 185.881,389.445 178.5,387.5C 177.068,391.013 176.235,394.68 176,398.5C 174.577,410.192 174.577,421.858 176,433.5C 176.494,431.866 176.66,430.199 176.5,428.5C 181.195,482.633 185.195,536.966 188.5,591.5C 188.66,593.199 188.494,594.866 188,596.5C 187.256,590.485 186.423,584.485 185.5,578.5C 184.784,579.311 183.95,579.978 183,580.5C 180.898,579.962 180.065,578.962 180.5,577.5C 176.609,579.204 176.609,581.037 180.5,583C 179.874,583.75 179.374,584.584 179,585.5C 177.582,583.637 175.749,583.137 173.5,584C 173.516,586.349 173.516,588.682 173.5,591C 172.991,592.169 172.158,593.002 171,593.5C 170.107,592.289 169.274,592.289 168.5,593.5C 169.76,594.382 170.926,595.382 172,596.5C 172.556,594.405 173.056,594.238 173.5,596C 172.14,599.466 170.307,599.966 168,597.5C 166.97,597.836 166.47,598.503 166.5,599.5C 165.662,599.842 165.328,600.508 165.5,601.5C 161.942,556.991 158.442,512.324 155,467.5C 153.287,447.186 152.287,426.852 152,406.5C 152.831,396.352 154.497,386.352 157,376.5C 159.875,370.788 163.709,365.788 168.5,361.5C 166.883,359.368 166.383,357.035 167,354.5C 177.764,325.363 188.597,296.363 199.5,267.5C 199.435,267.938 199.601,268.272 200,268.5C 202.567,264.3 206.067,261.133 210.5,259C 209.234,255.491 209.401,251.991 211,248.5C 219.138,232.559 226.971,216.559 234.5,200.5C 239.559,192.057 244.392,183.39 249,174.5C 253.747,171.085 255.914,166.419 255.5,160.5C 264.805,143.228 274.638,126.228 285,109.5C 297.059,93.4828 311.893,90.3161 329.5,100C 340.654,109.473 344.488,121.306 341,135.5C 332.153,157.084 323.153,178.417 314,199.5C 306.366,220.735 299.366,242.068 293,263.5C 300.754,258.037 308.921,253.203 317.5,249C 326.649,246.659 333.982,249.159 339.5,256.5C 344.521,255.2 349.521,255.367 354.5,257C 369.659,264.745 384.659,272.745 399.5,281C 402.07,283.067 404.07,285.567 405.5,288.5C 409.824,289.662 413.824,291.495 417.5,294C 427.304,302.803 436.804,311.97 446,321.5C 450.278,328.172 452.445,335.505 452.5,343.5C 456.527,346.88 459.027,351.214 460,356.5C 463.333,369.167 466.667,381.833 470,394.5C 472.354,412.295 464.854,423.461 447.5,428C 426.851,428.871 414.518,419.038 410.5,398.5 Z"/></g>
<g><path style="opacity:1" fill="#f9fafd" d="M 308.5,123.5 C 312.733,122.742 315.399,124.409 316.5,128.5C 310.309,144.547 303.309,160.213 295.5,175.5C 290.472,173.324 285.806,170.657 281.5,167.5C 288.467,154.705 295.633,142.038 303,129.5C 304.36,126.977 306.193,124.977 308.5,123.5 Z"/></g>
<g><path style="opacity:1" fill="#1129a1" d="M 597.5,164.5 C 598.552,164.351 599.552,164.517 600.5,165C 580.643,168.12 561.643,173.953 543.5,182.5C 542.893,182.376 542.56,182.043 542.5,181.5C 559.877,172.819 578.21,167.153 597.5,164.5 Z"/></g>
<g><path style="opacity:1" fill="#122aa3" d="M 255.5,160.5 C 255.914,166.419 253.747,171.085 249,174.5C 244.392,183.39 239.559,192.057 234.5,200.5C 238.79,189.248 244.623,178.915 252,169.5C 252.119,165.995 253.286,162.995 255.5,160.5 Z"/></g>
<g><path style="opacity:1" fill="#fbfcfe" d="M 279.5,195.5 C 282.149,196.824 284.816,198.158 287.5,199.5C 282.094,214.052 277.094,228.719 272.5,243.5C 270.068,249.287 267.901,255.287 266,261.5C 265.481,262.516 264.647,263.182 263.5,263.5C 253.978,260.493 244.645,256.993 235.5,253C 245.863,231.771 256.863,210.938 268.5,190.5C 272.069,192.453 275.736,194.119 279.5,195.5 Z"/></g>
<g><path style="opacity:1" fill="#1027a2" d="M 279.5,195.5 C 279.56,194.957 279.893,194.624 280.5,194.5C 282.979,196.076 285.646,197.076 288.5,197.5C 285.84,207.981 282.673,218.315 279,228.5C 277.168,234.345 275.001,239.345 272.5,243.5C 277.094,228.719 282.094,214.052 287.5,199.5C 284.816,198.158 282.149,196.824 279.5,195.5 Z"/></g>
<g><path style="opacity:1" fill="#152aa2" d="M 234.5,200.5 C 226.971,216.559 219.138,232.559 211,248.5C 209.401,251.991 209.234,255.491 210.5,259C 206.067,261.133 202.567,264.3 200,268.5C 199.601,268.272 199.435,267.938 199.5,267.5C 201.478,263.522 204.478,260.522 208.5,258.5C 207.269,255.462 207.436,252.462 209,249.5C 217.019,232.791 225.519,216.457 234.5,200.5 Z"/></g>
<g><path style="opacity:1" fill="#fbfcfd" d="M 623.5,269.5 C 624.962,306.816 625.629,344.149 625.5,381.5C 626.034,393.371 627.867,405.038 631,416.5C 634.157,421.492 638.657,423.325 644.5,422C 647.333,420.5 649.5,418.333 651,415.5C 654.483,402.383 659.15,389.716 665,377.5C 666.264,375.393 668.097,374.393 670.5,374.5C 670.666,379.179 670.499,383.845 670,388.5C 667.048,402.091 664.548,415.758 662.5,429.5C 662.204,439.374 666.871,443.874 676.5,443C 678.848,442.654 680.681,441.487 682,439.5C 687.746,423.262 694.079,407.262 701,391.5C 702.028,389.639 703.528,388.305 705.5,387.5C 706.72,387.887 707.387,388.72 707.5,390C 701.926,406.39 695.759,422.556 689,438.5C 688.128,443.266 688.962,447.6 691.5,451.5C 697.506,456.983 703.339,456.65 709,450.5C 714.117,440.6 718.95,430.6 723.5,420.5C 725.747,416.989 727.913,413.322 730,409.5C 731.167,408.333 732.333,407.167 733.5,406C 734.449,405.383 735.282,405.549 736,406.5C 737.439,418.758 737.939,431.091 737.5,443.5C 737.5,447.5 737.5,451.5 737.5,455.5C 736.116,476.365 730.95,496.365 722,515.5C 707.939,540.122 686.772,554.122 658.5,557.5C 655.5,557.5 652.5,557.5 649.5,557.5C 652.894,549.651 655.894,541.651 658.5,533.5C 661.725,521.368 662.891,509.034 662,496.5C 661.329,492.324 660.162,488.324 658.5,484.5C 658.672,483.508 658.338,482.842 657.5,482.5C 648.125,461.459 632.791,446.459 611.5,437.5C 610.416,430.172 610.416,422.839 611.5,415.5C 612.426,394.83 613.426,374.163 614.5,353.5C 615.918,327.003 617.084,300.336 618,273.5C 618.473,271.221 619.473,269.221 621,267.5C 621.708,268.381 622.542,269.047 623.5,269.5 Z"/></g>
<g><path style="opacity:1" fill="#f9fafd" d="M 319.5,273.5 C 326.351,274.546 328.518,278.213 326,284.5C 315.902,294.303 305.069,302.803 293.5,310C 288.977,306.233 284.643,302.233 280.5,298C 293.94,290.366 306.94,282.199 319.5,273.5 Z"/></g>
<g><path style="opacity:1" fill="#fcfdfe" d="M 220.5,281.5 C 229.906,284.635 239.24,287.969 248.5,291.5C 241.001,315.494 233.501,339.494 226,363.5C 225.612,364.428 224.945,365.095 224,365.5C 213.771,361.967 203.604,358.3 193.5,354.5C 202.792,330.255 211.792,305.921 220.5,281.5 Z"/></g>
<g><path style="opacity:1" fill="#fafbfd" d="M 353.5,284.5 C 363.139,289.988 372.806,295.488 382.5,301C 378.292,307.918 373.958,314.751 369.5,321.5C 357.208,318.51 344.875,315.677 332.5,313C 340.667,308.833 346.833,302.667 351,294.5C 352.026,291.198 352.86,287.865 353.5,284.5 Z"/></g>
<g><path style="opacity:1" fill="#0b209e" d="M 469.5,288.5 C 467.143,293.355 463.143,295.688 457.5,295.5C 453.306,295.403 449.973,293.737 447.5,290.5C 455.419,296.249 462.752,295.583 469.5,288.5 Z"/></g>
<g><path style="opacity:1" fill="#fbfcfd" d="M 404.5,316.5 C 412.098,322.594 419.264,329.261 426,336.5C 426.667,338.167 426.667,339.833 426,341.5C 421.634,346.201 416.967,350.534 412,354.5C 405.35,348.684 398.85,342.684 392.5,336.5C 396.511,329.806 400.511,323.139 404.5,316.5 Z"/></g>
<g><path style="opacity:1" fill="#f9fafd" d="M 320.5,329.5 C 331.564,332.466 342.397,336.132 353,340.5C 350.806,346.712 347.639,352.545 343.5,358C 333.554,355.009 323.887,351.009 314.5,346C 316.998,340.673 318.998,335.173 320.5,329.5 Z"/></g>
<g><path style="opacity:1" fill="#fcfdfe" d="M 263.5,329.5 C 270.391,331.414 277.391,332.914 284.5,334C 285.428,334.388 286.095,335.055 286.5,336C 284.026,352.815 281.693,369.648 279.5,386.5C 278.381,396.164 277.215,405.831 276,415.5C 264.842,409.919 253.009,406.919 240.5,406.5C 241.344,402.126 242.344,397.793 243.5,393.5C 245.336,388.659 247.003,383.659 248.5,378.5C 253.702,362.226 258.702,345.893 263.5,329.5 Z"/></g>
<g><path style="opacity:1" fill="#1c35a8" d="M 645.5,272.5 C 646.812,298.144 647.478,323.81 647.5,349.5C 647.5,354.167 647.5,358.833 647.5,363.5C 646.759,355.488 646.093,347.321 645.5,339C 645.167,338.167 644.833,337.333 644.5,336.5C 643.709,337.066 643.709,337.899 644.5,339C 644.15,340.257 643.483,340.591 642.5,340C 643.121,337.502 642.455,335.168 640.5,333C 641.126,332.25 641.626,331.416 642,330.5C 642.415,332.291 643.415,333.624 645,334.5C 645.097,313.662 645.263,292.995 645.5,272.5 Z"/></g>
<g><path style="opacity:1" fill="#041b9d" d="M 593.5,307.5 C 594.166,311.988 594.499,316.654 594.5,321.5C 594.572,331.58 593.906,339.58 592.5,345.5C 593.111,332.842 593.444,320.176 593.5,307.5 Z"/></g>
<g><path style="opacity:1" fill="#0d24a0" d="M 263.5,329.5 C 258.702,345.893 253.702,362.226 248.5,378.5C 247.903,378.265 247.57,377.765 247.5,377C 252.591,360.798 257.758,344.632 263,328.5C 263.399,328.728 263.565,329.062 263.5,329.5 Z"/></g>
<g><path style="opacity:1" fill="#f9fafd" d="M 382.5,355.5 C 387.812,360.146 392.812,365.146 397.5,370.5C 392.537,375.235 386.704,378.568 380,380.5C 377.849,380.357 376.182,379.357 375,377.5C 373.688,375.045 372.522,372.545 371.5,370C 375.767,365.574 379.433,360.741 382.5,355.5 Z"/></g>
<g><path style="opacity:1" fill="#7196ce" d="M 647.5,349.5 C 648.167,353.833 648.833,358.167 649.5,362.5C 648.994,364.105 648.327,364.439 647.5,363.5C 647.5,358.833 647.5,354.167 647.5,349.5 Z"/></g>
<g><path style="opacity:1" fill="#f7f9fc" d="M 437.5,365.5 C 441.599,376.142 444.933,387.142 447.5,398.5C 445.814,405.881 441.981,407.215 436,402.5C 432.361,393.389 428.861,384.222 425.5,375C 429.292,371.6 433.292,368.433 437.5,365.5 Z"/></g>
<g><path style="opacity:1" fill="#08209e" d="M 716.5,367.5 C 708.677,364.518 701.01,364.851 693.5,368.5C 692.893,368.376 692.56,368.043 692.5,367.5C 695.68,365.043 699.347,364.043 703.5,364.5C 708.278,364.132 712.611,365.132 716.5,367.5 Z"/></g>
<g><path style="opacity:1" fill="#172aa2" d="M 519.5,360.5 C 534.687,365.345 546.353,374.679 554.5,388.5C 549.397,382.895 544.064,377.395 538.5,372C 532.359,367.608 526.026,363.774 519.5,360.5 Z"/></g>
<g><path style="opacity:1" fill="#fdfdfe" d="M 198.5,393.5 C 204.191,395.707 210.191,397.041 216.5,397.5C 214.61,405.897 213.277,414.397 212.5,423C 212.544,424.764 212.878,426.431 213.5,428C 210.271,432.233 207.438,436.733 205,441.5C 196.873,467.734 204.707,487.567 228.5,501C 261.286,508.851 281.786,496.351 290,463.5C 292.76,469.977 295.593,476.31 298.5,482.5C 305.268,500.155 312.601,517.488 320.5,534.5C 325.037,546.581 329.871,558.581 335,570.5C 335.667,574.5 335.667,578.5 335,582.5C 332.855,589.099 331.022,595.765 329.5,602.5C 328.512,605.081 327.512,607.748 326.5,610.5C 325.173,616.315 323.34,621.981 321,627.5C 319.681,629.487 317.848,630.654 315.5,631C 276.471,631.815 237.471,631.649 198.5,630.5C 194.543,627.946 192.043,624.279 191,619.5C 190.49,609.985 189.656,600.652 188.5,591.5C 185.195,536.966 181.195,482.633 176.5,428.5C 176.334,419.494 176.5,410.494 177,401.5C 177.185,397.344 178.018,393.344 179.5,389.5C 185.676,391.602 192.009,392.935 198.5,393.5 Z"/></g>
<g><path style="opacity:1" fill="#0e27a2" d="M 198.5,393.5 C 192.009,392.935 185.676,391.602 179.5,389.5C 178.018,393.344 177.185,397.344 177,401.5C 176.5,410.494 176.334,419.494 176.5,428.5C 176.66,430.199 176.494,431.866 176,433.5C 174.577,421.858 174.577,410.192 176,398.5C 176.235,394.68 177.068,391.013 178.5,387.5C 185.881,389.445 192.547,391.445 198.5,393.5 Z"/></g>
<g><path style="opacity:1" fill="#1c269e" d="M 840.5,424.5 C 839.508,419.052 838.841,413.552 838.5,408C 839.777,397.163 839.777,386.33 838.5,375.5C 838.351,374.448 838.517,373.448 839,372.5C 839.333,375.167 839.667,377.833 840,380.5C 840.2,394.526 840.7,408.526 841.5,422.5C 841.457,423.416 841.124,424.083 840.5,424.5 Z"/></g>
<g><path style="opacity:1" fill="#0f26a1" d="M 410.5,398.5 C 409.249,396.618 408.082,394.618 407,392.5C 398.549,399.559 388.883,403.892 378,405.5C 373.111,405.204 368.611,403.704 364.5,401C 362.536,399.549 361.203,397.716 360.5,395.5C 367.558,403.267 376.225,405.767 386.5,403C 393.43,399.286 400.263,395.453 407,391.5C 409.381,393.094 410.547,395.427 410.5,398.5 Z"/></g>
<g><path style="opacity:1" fill="#0344ae" d="M 645.5,272.5 C 645.263,292.995 645.097,313.662 645,334.5C 643.415,333.624 642.415,332.291 642,330.5C 641.626,331.416 641.126,332.25 640.5,333C 642.455,335.168 643.121,337.502 642.5,340C 643.483,340.591 644.15,340.257 644.5,339C 643.709,337.899 643.709,337.066 644.5,336.5C 644.833,337.333 645.167,338.167 645.5,339C 646.093,347.321 646.759,355.488 647.5,363.5C 648.327,364.439 648.994,364.105 649.5,362.5C 654.573,353.634 662.239,350.134 672.5,352C 682.453,353.121 689.12,358.288 692.5,367.5C 692.56,368.043 692.893,368.376 693.5,368.5C 701.01,364.851 708.677,364.518 716.5,367.5C 719.643,368.134 722.143,369.8 724,372.5C 726.11,376.386 727.943,380.386 729.5,384.5C 739.737,381.182 748.237,383.849 755,392.5C 757.145,396.934 758.478,401.6 759,406.5C 762.899,443.408 758.899,479.408 747,514.5C 742.265,524.018 737.431,533.351 732.5,542.5C 731.833,541.833 731.167,541.167 730.5,540.5C 728.364,540.244 726.697,538.744 725.5,536C 724.216,535.316 723.049,535.483 722,536.5C 721.347,533.257 719.847,532.423 717.5,534C 718.328,534.915 719.328,535.581 720.5,536C 719.167,536.667 719.167,537.333 720.5,538C 718.406,538.862 717.406,540.028 717.5,541.5C 716.281,540.737 715.281,539.737 714.5,538.5C 712.415,539.647 710.915,538.98 710,536.5C 709.395,538.481 708.395,538.815 707,537.5C 706.342,539.108 706.842,540.275 708.5,541C 708.167,541.333 707.833,541.667 707.5,542C 709.085,542.085 710.418,542.251 711.5,542.5C 709.161,544.499 708.494,546.832 709.5,549.5C 709.296,548.471 709.796,547.471 711,546.5C 711.704,549.946 713.037,549.946 715,546.5C 715.374,547.416 715.874,548.25 716.5,549C 715.167,549.667 715.167,550.333 716.5,551C 715.551,551.617 714.718,551.451 714,550.5C 713.51,551.793 713.343,553.127 713.5,554.5C 716.598,554.413 716.932,554.913 714.5,556C 714.833,556.333 715.167,556.667 715.5,557C 714.354,557.645 713.354,558.478 712.5,559.5C 711.749,558.624 711.249,557.624 711,556.5C 710.692,557.308 710.192,557.975 709.5,558.5C 708.403,556.465 706.737,555.132 704.5,554.5C 705.966,552.343 707.8,552.01 710,553.5C 710.167,553.167 710.333,552.833 710.5,552.5C 709.372,551.738 708.205,551.071 707,550.5C 704.078,553.029 700.911,555.196 697.5,557C 698.938,557.219 700.271,557.719 701.5,558.5C 700.371,560.529 700.871,560.863 703,559.5C 704.487,560.253 704.654,561.086 703.5,562C 704.308,562.308 704.975,562.808 705.5,563.5C 705.154,564.696 704.654,564.696 704,563.5C 703.51,564.793 703.343,566.127 703.5,567.5C 707.099,567.262 707.433,568.262 704.5,570.5C 701.966,569.212 699.466,569.212 697,570.5C 696.667,569.833 696.333,569.167 696,568.5C 695.974,571.105 694.807,572.271 692.5,572C 694.26,571.035 694.594,569.868 693.5,568.5C 692.14,570.848 690.473,571.015 688.5,569C 689.167,568.667 689.833,568.333 690.5,568C 689.026,566.684 687.359,565.684 685.5,565C 687.481,564.395 687.815,563.395 686.5,562C 684.17,560.655 681.837,560.488 679.5,561.5C 680.462,563.883 679.462,564.883 676.5,564.5C 676.649,565.552 676.483,566.552 676,567.5C 675,566.167 674,566.167 673,567.5C 672.308,566.975 671.808,566.308 671.5,565.5C 672.326,564.549 672.492,563.549 672,562.5C 669.232,561.792 668.399,560.292 669.5,558C 665.679,558.497 662.013,558.331 658.5,557.5C 686.772,554.122 707.939,540.122 722,515.5C 730.95,496.365 736.116,476.365 737.5,455.5C 739.115,450.773 739.781,443.273 739.5,433C 739.333,427.833 739.167,422.667 739,417.5C 738.83,426.343 738.33,435.01 737.5,443.5C 737.939,431.091 737.439,418.758 736,406.5C 735.282,405.549 734.449,405.383 733.5,406C 732.333,407.167 731.167,408.333 730,409.5C 727.913,413.322 725.747,416.989 723.5,420.5C 717.853,429.787 712.686,439.454 708,449.5C 702.999,455.587 697.666,455.92 692,450.5C 691.601,450.728 691.435,451.062 691.5,451.5C 688.962,447.6 688.128,443.266 689,438.5C 695.759,422.556 701.926,406.39 707.5,390C 707.387,388.72 706.72,387.887 705.5,387.5C 703.528,388.305 702.028,389.639 701,391.5C 694.079,407.262 687.746,423.262 682,439.5C 680.681,441.487 678.848,442.654 676.5,443C 666.871,443.874 662.204,439.374 662.5,429.5C 664.548,415.758 667.048,402.091 670,388.5C 670.499,383.845 670.666,379.179 670.5,374.5C 668.097,374.393 666.264,375.393 665,377.5C 659.15,389.716 654.483,402.383 651,415.5C 649.5,418.333 647.333,420.5 644.5,422C 638.657,423.325 634.157,421.492 631,416.5C 627.867,405.038 626.034,393.371 625.5,381.5C 626.764,346.325 626.597,310.991 625,275.5C 624.809,273.292 624.309,271.292 623.5,269.5C 622.542,269.047 621.708,268.381 621,267.5C 619.473,269.221 618.473,271.221 618,273.5C 617.084,300.336 615.918,327.003 614.5,353.5C 614.66,351.801 614.494,350.134 614,348.5C 611.725,370.959 610.891,393.292 611.5,415.5C 610.416,422.839 610.416,430.172 611.5,437.5C 632.791,446.459 648.125,461.459 657.5,482.5C 654.32,476.328 649.986,470.328 644.5,464.5C 641.881,466.425 639.715,468.092 638,469.5C 637,468.5 636,467.5 635,466.5C 634.667,467.5 634.333,468.5 634,469.5C 631.817,467.924 629.651,466.258 627.5,464.5C 626.5,465.833 625.5,465.833 624.5,464.5C 623.719,465.729 623.219,467.062 623,468.5C 620.449,466.801 617.949,464.967 615.5,463C 618.356,461.571 618.856,459.737 617,457.5C 615.815,459.559 614.648,459.726 613.5,458C 614.038,455.898 615.038,455.065 616.5,455.5C 613.956,454.063 613.956,452.563 616.5,451C 614.671,451.402 613.004,452.069 611.5,453C 608.956,451.437 608.956,449.937 611.5,448.5C 608.998,446.537 606.331,446.204 603.5,447.5C 602.522,447.023 601.689,446.357 601,445.5C 600.365,449.102 599.032,449.768 597,447.5C 592.751,450.513 589.084,449.847 586,445.5C 585.305,443.278 584.472,441.111 583.5,439C 584.648,437.274 585.815,437.441 587,439.5C 588.418,436.999 589.418,437.332 590,440.5C 590.654,439.304 591.154,439.304 591.5,440.5C 589.252,441.324 589.086,442.324 591,443.5C 591.75,442.874 592.584,442.374 593.5,442C 592.72,440.927 592.887,439.76 594,438.5C 594.92,438.07 595.753,437.736 596.5,437.5C 594.793,434.896 592.626,434.23 590,435.5C 589.309,433.109 588.309,433.109 587,435.5C 585.961,434.756 585.461,433.756 585.5,432.5C 586.856,426.957 587.69,421.29 588,415.5C 588.863,391.969 590.363,368.636 592.5,345.5C 593.906,339.58 594.572,331.58 594.5,321.5C 594.499,316.654 594.166,311.988 593.5,307.5C 593.515,294.776 594.348,282.109 596,269.5C 597.649,259.703 601.816,251.203 608.5,244C 623.11,237.092 633.943,240.926 641,255.5C 643.282,260.963 644.782,266.629 645.5,272.5 Z"/></g>
<g><path style="opacity:1" fill="#01189c" d="M 623.5,269.5 C 624.309,271.292 624.809,273.292 625,275.5C 626.597,310.991 626.764,346.325 625.5,381.5C 625.629,344.149 624.962,306.816 623.5,269.5 Z"/></g>
<g><path style="opacity:1" fill="#0625a0" d="M 614.5,353.5 C 613.426,374.163 612.426,394.83 611.5,415.5C 610.891,393.292 611.725,370.959 614,348.5C 614.494,350.134 614.66,351.801 614.5,353.5 Z"/></g>
<g><path style="opacity:1" fill="#1132a6" d="M 279.5,386.5 C 280.049,396.4 279.383,406.4 277.5,416.5C 271.332,414.611 265.165,412.611 259,410.5C 256.807,412.408 254.307,412.575 251.5,411C 252.833,410.333 252.833,409.667 251.5,409C 247.245,408.204 243.079,408.371 239,409.5C 239.618,406.158 239.118,402.825 237.5,399.5C 238.274,398.289 239.107,398.289 240,399.5C 241.155,396.803 242.321,394.803 243.5,393.5C 242.344,397.793 241.344,402.126 240.5,406.5C 253.009,406.919 264.842,409.919 276,415.5C 277.215,405.831 278.381,396.164 279.5,386.5 Z"/></g>
<g><path style="opacity:1" fill="#fcfdfe" d="M 378.5,609.5 C 372.45,616.86 364.783,621.694 355.5,624C 352.167,624.667 348.833,624.667 345.5,624C 350.201,610.363 354.201,596.53 357.5,582.5C 358.338,582.158 358.672,581.492 358.5,580.5C 358.952,574.631 358.119,568.965 356,563.5C 341.239,528.359 326.406,493.359 311.5,458.5C 309.098,450.632 306.098,442.966 302.5,435.5C 316.43,439.846 328.597,447.512 339,458.5C 361.727,491.228 385.227,523.394 409.5,555C 401.841,574.833 391.508,592.999 378.5,609.5 Z"/></g>
<g><path style="opacity:1" fill="#fbfcfd" d="M 240.5,438.5 C 256.612,439.112 264.779,447.445 265,463.5C 260.134,477.516 250.634,482.349 236.5,478C 223.867,468.363 222.2,457.03 231.5,444C 234.263,441.626 237.263,439.792 240.5,438.5 Z"/></g>
<g><path style="opacity:1" fill="#0f249f" d="M 723.5,420.5 C 718.95,430.6 714.117,440.6 709,450.5C 703.339,456.65 697.506,456.983 691.5,451.5C 691.435,451.062 691.601,450.728 692,450.5C 697.666,455.92 702.999,455.587 708,449.5C 712.686,439.454 717.853,429.787 723.5,420.5 Z"/></g>
<g><path style="opacity:1" fill="#041e9d" d="M 737.5,455.5 C 737.5,451.5 737.5,447.5 737.5,443.5C 738.33,435.01 738.83,426.343 739,417.5C 739.167,422.667 739.333,427.833 739.5,433C 739.781,443.273 739.115,450.773 737.5,455.5 Z"/></g>
<g><path style="opacity:1" fill="#fafbfd" d="M 422.5,465.5 C 426.58,465.081 428.58,466.914 428.5,471C 425.43,489.017 421.597,506.851 417,524.5C 411.695,516.363 406.195,508.363 400.5,500.5C 406.919,489.997 413.086,479.33 419,468.5C 420.145,467.364 421.312,466.364 422.5,465.5 Z"/></g>
<g><path style="opacity:1" fill="#172ba3" d="M 450.5,455.5 C 452.896,459.393 454.229,463.726 454.5,468.5C 453.37,474.151 452.37,479.818 451.5,485.5C 450.853,484.726 450.52,483.726 450.5,482.5C 453.11,473.496 453.11,464.496 450.5,455.5 Z"/></g>
<g><path style="opacity:1" fill="#0e25a0" d="M 320.5,534.5 C 312.601,517.488 305.268,500.155 298.5,482.5C 306.628,498.84 313.961,516.174 320.5,534.5 Z"/></g>
<g><path style="opacity:1" fill="#0f2ea4" d="M 658.5,484.5 C 660.162,488.324 661.329,492.324 662,496.5C 662.891,509.034 661.725,521.368 658.5,533.5C 657.876,533.083 657.543,532.416 657.5,531.5C 661.392,516.125 661.392,500.791 657.5,485.5C 657.624,484.893 657.957,484.56 658.5,484.5 Z"/></g>
<g><path style="opacity:1" fill="#02189a" d="M 884.5,511.5 C 888.146,514.779 889.479,518.779 888.5,523.5C 879.705,524.817 871.038,524.817 862.5,523.5C 870.889,523.803 879.222,523.47 887.5,522.5C 887.833,522 888.167,521.5 888.5,521C 887.016,517.87 885.683,514.703 884.5,511.5 Z"/></g>
<g><path style="opacity:1" fill="#071c9f" d="M 907.5,545.5 C 897.814,551.868 887.147,554.201 875.5,552.5C 875.79,563.884 875.457,575.217 874.5,586.5C 874.424,575.056 874.424,563.389 874.5,551.5C 886.074,552.986 896.741,550.653 906.5,544.5C 907.107,544.624 907.44,544.957 907.5,545.5 Z"/></g>
<g><path style="opacity:1" fill="#0d27a0" d="M 730.5,540.5 C 731.167,541.167 731.833,541.833 732.5,542.5C 732.34,557.609 731.006,572.609 728.5,587.5C 727.853,586.726 727.52,585.726 727.5,584.5C 729.989,569.938 730.989,555.272 730.5,540.5 Z"/></g>
<g><path style="opacity:1" fill="#083caa" d="M 311.5,458.5 C 326.406,493.359 341.239,528.359 356,563.5C 358.119,568.965 358.952,574.631 358.5,580.5C 357.033,570.512 354.033,560.845 349.5,551.5C 345.925,550.192 345.592,551.026 348.5,554C 348,554.5 347.5,555 347,555.5C 345.274,554.424 343.441,554.257 341.5,555C 342.654,555.914 342.487,556.747 341,557.5C 340.549,555.071 339.715,554.904 338.5,557C 338.833,557.333 339.167,557.667 339.5,558C 337.754,558.471 336.087,559.138 334.5,560C 336.271,562.113 337.771,561.947 339,559.5C 340.636,563.011 341.803,563.344 342.5,560.5C 343.466,562.396 343.799,564.396 343.5,566.5C 341.61,566.297 340.11,566.963 339,568.5C 338.667,567.833 338.333,567.167 338,566.5C 337.552,568.224 336.718,568.891 335.5,568.5C 337.09,572.036 337.59,575.703 337,579.5C 335.389,588.159 332.889,595.825 329.5,602.5C 331.022,595.765 332.855,589.099 335,582.5C 335.667,578.5 335.667,574.5 335,570.5C 329.871,558.581 325.037,546.581 320.5,534.5C 321.558,535.6 322.392,536.934 323,538.5C 323.561,537.978 324.228,537.645 325,537.5C 327.135,538.127 329.302,538.627 331.5,539C 335.169,540.925 335.169,542.592 331.5,544C 332.956,544.423 333.456,545.256 333,546.5C 331.434,547.061 330.101,546.394 329,544.5C 328.355,545.646 327.522,546.646 326.5,547.5C 328.57,552.209 330.737,556.876 333,561.5C 333.273,559.671 334.107,558.171 335.5,557C 334.833,556.333 334.167,555.667 333.5,555C 334.949,553.883 336.616,553.216 338.5,553C 337.289,552.107 337.289,551.274 338.5,550.5C 339.609,551.59 340.609,551.59 341.5,550.5C 338.582,547.769 338.915,545.603 342.5,544C 339.833,543.333 339.833,542.667 342.5,542C 341.124,539.457 339.957,539.291 339,541.5C 337.176,540.251 337.343,539.085 339.5,538C 338.262,538.077 337.262,537.911 336.5,537.5C 337.914,536.376 339.414,535.376 341,534.5C 341.333,535.167 341.667,535.833 342,536.5C 337.622,523.72 332.622,511.053 327,498.5C 326.577,499.956 325.744,500.456 324.5,500C 324.368,497.953 324.535,495.787 325,493.5C 322.071,497.301 318.904,497.467 315.5,494C 316.167,493.667 316.833,493.333 317.5,493C 313.777,491.635 313.777,489.968 317.5,488C 316.72,486.927 316.887,485.76 318,484.5C 319.264,484.36 320.431,484.36 321.5,484.5C 317.592,476.023 314.258,467.357 311.5,458.5 Z"/></g>
<g><path style="opacity:1" fill="#0045ae" d="M 519.5,360.5 C 526.026,363.774 532.359,367.608 538.5,372C 544.064,377.395 549.397,382.895 554.5,388.5C 558.223,392.92 561.723,397.586 565,402.5C 570.54,413.361 576.873,423.695 584,433.5C 584.383,432.944 584.883,432.611 585.5,432.5C 585.461,433.756 585.961,434.756 587,435.5C 588.309,433.109 589.309,433.109 590,435.5C 592.626,434.23 594.793,434.896 596.5,437.5C 595.753,437.736 594.92,438.07 594,438.5C 592.887,439.76 592.72,440.927 593.5,442C 592.584,442.374 591.75,442.874 591,443.5C 589.086,442.324 589.252,441.324 591.5,440.5C 591.154,439.304 590.654,439.304 590,440.5C 589.418,437.332 588.418,436.999 587,439.5C 585.815,437.441 584.648,437.274 583.5,439C 584.472,441.111 585.305,443.278 586,445.5C 589.084,449.847 592.751,450.513 597,447.5C 599.032,449.768 600.365,449.102 601,445.5C 601.689,446.357 602.522,447.023 603.5,447.5C 606.331,446.204 608.998,446.537 611.5,448.5C 608.956,449.937 608.956,451.437 611.5,453C 613.004,452.069 614.671,451.402 616.5,451C 613.956,452.563 613.956,454.063 616.5,455.5C 615.038,455.065 614.038,455.898 613.5,458C 614.648,459.726 615.815,459.559 617,457.5C 618.856,459.737 618.356,461.571 615.5,463C 617.949,464.967 620.449,466.801 623,468.5C 623.219,467.062 623.719,465.729 624.5,464.5C 625.5,465.833 626.5,465.833 627.5,464.5C 629.651,466.258 631.817,467.924 634,469.5C 634.333,468.5 634.667,467.5 635,466.5C 636,467.5 637,468.5 638,469.5C 639.715,468.092 641.881,466.425 644.5,464.5C 649.986,470.328 654.32,476.328 657.5,482.5C 658.338,482.842 658.672,483.508 658.5,484.5C 657.957,484.56 657.624,484.893 657.5,485.5C 661.392,500.791 661.392,516.125 657.5,531.5C 657.543,532.416 657.876,533.083 658.5,533.5C 655.894,541.651 652.894,549.651 649.5,557.5C 652.5,557.5 655.5,557.5 658.5,557.5C 662.013,558.331 665.679,558.497 669.5,558C 668.399,560.292 669.232,561.792 672,562.5C 672.492,563.549 672.326,564.549 671.5,565.5C 671.808,566.308 672.308,566.975 673,567.5C 674,566.167 675,566.167 676,567.5C 676.483,566.552 676.649,565.552 676.5,564.5C 679.462,564.883 680.462,563.883 679.5,561.5C 681.837,560.488 684.17,560.655 686.5,562C 687.815,563.395 687.481,564.395 685.5,565C 687.359,565.684 689.026,566.684 690.5,568C 689.833,568.333 689.167,568.667 688.5,569C 690.473,571.015 692.14,570.848 693.5,568.5C 694.594,569.868 694.26,571.035 692.5,572C 694.807,572.271 695.974,571.105 696,568.5C 696.333,569.167 696.667,569.833 697,570.5C 699.466,569.212 701.966,569.212 704.5,570.5C 707.433,568.262 707.099,567.262 703.5,567.5C 703.343,566.127 703.51,564.793 704,563.5C 704.654,564.696 705.154,564.696 705.5,563.5C 704.975,562.808 704.308,562.308 703.5,562C 704.654,561.086 704.487,560.253 703,559.5C 700.871,560.863 700.371,560.529 701.5,558.5C 700.271,557.719 698.938,557.219 697.5,557C 700.911,555.196 704.078,553.029 707,550.5C 708.205,551.071 709.372,551.738 710.5,552.5C 710.333,552.833 710.167,553.167 710,553.5C 707.8,552.01 705.966,552.343 704.5,554.5C 706.737,555.132 708.403,556.465 709.5,558.5C 710.192,557.975 710.692,557.308 711,556.5C 711.249,557.624 711.749,558.624 712.5,559.5C 713.354,558.478 714.354,557.645 715.5,557C 715.167,556.667 714.833,556.333 714.5,556C 716.932,554.913 716.598,554.413 713.5,554.5C 713.343,553.127 713.51,551.793 714,550.5C 714.718,551.451 715.551,551.617 716.5,551C 715.167,550.333 715.167,549.667 716.5,549C 715.874,548.25 715.374,547.416 715,546.5C 713.037,549.946 711.704,549.946 711,546.5C 709.796,547.471 709.296,548.471 709.5,549.5C 708.494,546.832 709.161,544.499 711.5,542.5C 710.418,542.251 709.085,542.085 707.5,542C 707.833,541.667 708.167,541.333 708.5,541C 706.842,540.275 706.342,539.108 707,537.5C 708.395,538.815 709.395,538.481 710,536.5C 710.915,538.98 712.415,539.647 714.5,538.5C 715.281,539.737 716.281,540.737 717.5,541.5C 717.406,540.028 718.406,538.862 720.5,538C 719.167,537.333 719.167,536.667 720.5,536C 719.328,535.581 718.328,534.915 717.5,534C 719.847,532.423 721.347,533.257 722,536.5C 723.049,535.483 724.216,535.316 725.5,536C 726.697,538.744 728.364,540.244 730.5,540.5C 730.989,555.272 729.989,569.938 727.5,584.5C 727.52,585.726 727.853,586.726 728.5,587.5C 726.413,598.528 723.413,609.195 719.5,619.5C 716.421,626.282 712.754,633.449 708.5,641C 659.833,641.667 611.167,641.667 562.5,641C 567.434,636.574 571.767,631.74 575.5,626.5C 589.442,609.946 598.608,590.946 603,569.5C 605.488,554.27 602.488,540.27 594,527.5C 570.097,499.38 552.097,467.713 540,432.5C 530.522,412.541 517.855,394.875 502,379.5C 498.748,364.589 504.582,358.256 519.5,360.5 Z"/></g>
<g><path style="opacity:1" fill="#0721a0" d="M 846.5,537.5 C 847.661,551.661 847.827,565.994 847,580.5C 844.667,582.5 842.333,584.5 840,586.5C 840.809,591.162 841.976,595.829 843.5,600.5C 843.439,603.628 842.106,605.961 839.5,607.5C 840.749,605.33 841.749,602.996 842.5,600.5C 841.114,596.061 839.447,591.727 837.5,587.5C 839.854,584.312 842.688,581.645 846,579.5C 846.5,565.504 846.667,551.504 846.5,537.5 Z"/></g>
<g><path style="opacity:1" fill="#0244ae" d="M 907.5,545.5 C 907.44,544.957 907.107,544.624 906.5,544.5C 896.741,550.653 886.074,552.986 874.5,551.5C 874.424,563.389 874.424,575.056 874.5,586.5C 872.695,590.773 870.361,594.773 867.5,598.5C 870.476,610.738 866.976,620.738 857,628.5C 856.667,637.833 856.333,647.167 856,656.5C 849.756,684.909 832.256,701.576 803.5,706.5C 772.338,705.502 741.004,705.168 709.5,705.5C 709.5,706.5 709.5,707.5 709.5,708.5C 707.906,712.25 706.739,716.25 706,720.5C 705.517,719.552 705.351,718.552 705.5,717.5C 704.448,717.351 703.448,717.517 702.5,718C 704.152,719.47 705.152,721.303 705.5,723.5C 703.381,734.878 701.048,746.211 698.5,757.5C 698.543,758.416 698.876,759.083 699.5,759.5C 699.672,760.492 699.338,761.158 698.5,761.5C 696.598,764.929 695.431,769.262 695,774.5C 694.187,781.565 694.353,787.232 695.5,791.5C 698.549,802.619 703.049,813.285 709,823.5C 716.52,834.558 724.02,845.558 731.5,856.5C 734.342,861.855 738.175,866.522 743,870.5C 748.328,878.847 746.828,885.68 738.5,891C 735.167,891.667 731.833,891.667 728.5,891C 726.423,889.295 724.09,888.128 721.5,887.5C 629.598,836.352 530.932,808.519 425.5,804C 416.17,798.718 414.004,791.218 419,781.5C 441.39,765.434 457.39,744.434 467,718.5C 477.12,689.905 481.954,660.572 481.5,630.5C 481.336,633.187 481.503,635.854 482,638.5C 482.333,631.5 482.667,624.5 483,617.5C 486.12,610.026 491.62,607.526 499.5,610C 501.66,611.332 503.66,612.832 505.5,614.5C 506.117,614.611 506.617,614.944 507,615.5C 507.827,629.673 507.661,643.673 506.5,657.5C 505.291,663.613 504.291,671.113 503.5,680C 503.514,681.385 503.848,682.551 504.5,683.5C 504.672,684.492 504.338,685.158 503.5,685.5C 500.992,695.002 498.325,705.168 495.5,716C 495.57,716.765 495.903,717.265 496.5,717.5C 496.204,719.403 495.537,721.07 494.5,722.5C 487.705,738.395 479.372,754.061 469.5,769.5C 467.888,772.538 465.888,775.371 463.5,778C 540.286,785.612 613.953,804.612 684.5,835C 675.863,822.423 670.363,808.59 668,793.5C 667.333,787.833 667.333,782.167 668,776.5C 673.744,747.114 679.744,717.781 686,688.5C 688.976,681.761 694.143,678.094 701.5,677.5C 718.153,678.833 735.153,679.5 752.5,679.5C 769.5,679.333 786.5,679.167 803.5,679C 806.776,678.819 809.109,677.985 810.5,676.5C 820.958,672.521 826.791,664.854 828,653.5C 828.333,642.833 828.667,632.167 829,621.5C 830.807,615.547 834.307,610.881 839.5,607.5C 842.106,605.961 843.439,603.628 843.5,600.5C 841.976,595.829 840.809,591.162 840,586.5C 842.333,584.5 844.667,582.5 847,580.5C 847.827,565.994 847.661,551.661 846.5,537.5C 848.972,529.593 854.305,524.926 862.5,523.5C 871.038,524.817 879.705,524.817 888.5,523.5C 889.479,518.779 888.146,514.779 884.5,511.5C 873.028,490.562 861.528,469.562 850,448.5C 845.989,440.815 842.823,432.815 840.5,424.5C 841.124,424.083 841.457,423.416 841.5,422.5C 840.7,408.526 840.2,394.526 840,380.5C 839.667,377.833 839.333,375.167 839,372.5C 838.517,373.448 838.351,374.448 838.5,375.5C 824.325,284.006 772.992,224.506 684.5,197C 672.775,194.382 661.108,192.215 649.5,190.5C 646.049,189.745 640.549,189.412 633,189.5C 624.456,189.437 615.956,189.937 607.5,191C 608.094,191.464 608.761,191.631 609.5,191.5C 547.482,201.877 500.815,234.211 469.5,288.5C 462.752,295.583 455.419,296.249 447.5,290.5C 443.774,286.616 442.607,281.949 444,276.5C 466.538,234.128 499.371,202.461 542.5,181.5C 542.56,182.043 542.893,182.376 543.5,182.5C 561.643,173.953 580.643,168.12 600.5,165C 599.552,164.517 598.552,164.351 597.5,164.5C 683.127,154.097 754.961,180.764 813,244.5C 853.104,296.544 871.771,355.544 869,421.5C 872.119,429.739 875.786,437.739 880,445.5C 892.367,468.52 904.7,491.52 917,514.5C 920.419,526.944 917.252,537.278 907.5,545.5 Z"/></g>
<g><path style="opacity:1" fill="#051b9c" d="M 649.5,190.5 C 636.15,190.361 622.817,190.694 609.5,191.5C 608.761,191.631 608.094,191.464 607.5,191C 615.956,189.937 624.456,189.437 633,189.5C 640.549,189.412 646.049,189.745 649.5,190.5 Z"/></g>
<g><path style="opacity:1" fill="#073caa" d="M 357.5,582.5 C 354.201,596.53 350.201,610.363 345.5,624C 348.833,624.667 352.167,624.667 355.5,624C 364.783,621.694 372.45,616.86 378.5,609.5C 376.107,613.402 373.107,616.902 369.5,620C 370.431,621.676 371.098,623.509 371.5,625.5C 371.154,626.696 370.654,626.696 370,625.5C 368.759,626.877 368.592,628.21 369.5,629.5C 370.716,630.002 371.883,630.335 373,630.5C 374.133,628.789 375.633,628.289 377.5,629C 376.328,629.419 375.328,630.085 374.5,631C 377.103,632.885 379.936,634.385 383,635.5C 384.059,635.37 384.892,634.87 385.5,634C 384.289,633.107 384.289,632.274 385.5,631.5C 386.086,631.709 386.586,632.043 387,632.5C 387.359,629.456 388.026,629.122 389,631.5C 391,629.5 393,627.5 395,625.5C 395.399,625.728 395.565,626.062 395.5,626.5C 386.631,636.772 375.631,643.772 362.5,647.5C 366.134,645.359 370.467,643.193 375.5,641C 376.28,639.927 376.113,638.76 375,637.5C 372.478,640.372 370.645,640.038 369.5,636.5C 368.833,636.833 368.167,637.167 367.5,637.5C 365.642,635.484 364.642,633.484 364.5,631.5C 362.08,633.953 360.914,636.953 361,640.5C 360.333,641.833 359.667,641.833 359,640.5C 358.667,641.167 358.333,641.833 358,642.5C 356.5,640.667 355,638.833 353.5,637C 354.715,634.904 355.549,635.071 356,637.5C 356.645,636.354 357.478,635.354 358.5,634.5C 356.892,633.758 355.225,633.591 353.5,634C 352.377,632.132 352.377,630.132 353.5,628C 350.899,627.08 348.232,626.413 345.5,626C 344.978,625.439 344.645,624.772 344.5,624C 348.418,609.33 352.752,595.496 357.5,582.5 Z"/></g>
<g><path style="opacity:1" fill="#07219e" d="M 166.5,599.5 C 166.408,610.74 167.908,621.74 171,632.5C 174.617,640.204 179.45,646.204 185.5,650.5C 174.932,644.726 168.765,635.726 167,623.5C 166.168,616.185 165.668,608.852 165.5,601.5C 165.328,600.508 165.662,599.842 166.5,599.5 Z"/></g>
<g><path style="opacity:1" fill="#0821a0" d="M 505.5,614.5 C 503.66,612.832 501.66,611.332 499.5,610C 491.62,607.526 486.12,610.026 483,617.5C 482.667,624.5 482.333,631.5 482,638.5C 481.503,635.854 481.336,633.187 481.5,630.5C 481.334,625.821 481.501,621.155 482,616.5C 486.537,607.323 493.371,605.156 502.5,610C 504.141,611.129 505.141,612.629 505.5,614.5 Z"/></g>
<g><path style="opacity:1" fill="#031599" d="M 719.5,619.5 C 717.291,627.119 714.291,634.452 710.5,641.5C 660.17,642.667 609.837,642.833 559.5,642C 564.702,636.63 570.035,631.464 575.5,626.5C 571.767,631.74 567.434,636.574 562.5,641C 611.167,641.667 659.833,641.667 708.5,641C 712.754,633.449 716.421,626.282 719.5,619.5 Z"/></g>
<g><path style="opacity:1" fill="#02199c" d="M 506.5,657.5 C 506.347,666.21 505.68,674.877 504.5,683.5C 503.848,682.551 503.514,681.385 503.5,680C 504.291,671.113 505.291,663.613 506.5,657.5 Z"/></g>
<g><path style="opacity:1" fill="#0734a8" d="M 810.5,676.5 C 809.109,677.985 806.776,678.819 803.5,679C 786.5,679.167 769.5,679.333 752.5,679.5C 735.153,679.5 718.153,678.833 701.5,677.5C 737.858,677.808 774.191,677.474 810.5,676.5 Z"/></g>
<g><path style="opacity:1" fill="#0145ae" d="M 358.5,580.5 C 358.672,581.492 358.338,582.158 357.5,582.5C 352.752,595.496 348.418,609.33 344.5,624C 344.645,624.772 344.978,625.439 345.5,626C 348.232,626.413 350.899,627.08 353.5,628C 352.377,630.132 352.377,632.132 353.5,634C 355.225,633.591 356.892,633.758 358.5,634.5C 357.478,635.354 356.645,636.354 356,637.5C 355.549,635.071 354.715,634.904 353.5,637C 355,638.833 356.5,640.667 358,642.5C 358.333,641.833 358.667,641.167 359,640.5C 359.667,641.833 360.333,641.833 361,640.5C 360.914,636.953 362.08,633.953 364.5,631.5C 364.642,633.484 365.642,635.484 367.5,637.5C 368.167,637.167 368.833,636.833 369.5,636.5C 370.645,640.038 372.478,640.372 375,637.5C 376.113,638.76 376.28,639.927 375.5,641C 370.467,643.193 366.134,645.359 362.5,647.5C 357.449,649.344 352.116,650.344 346.5,650.5C 346.5,659.167 346.5,667.833 346.5,676.5C 361.587,674.107 371.087,680.107 375,694.5C 375.889,703.503 376.722,712.503 377.5,721.5C 376.353,725.646 376.186,729.98 377,734.5C 377.912,743.516 378.912,752.516 380,761.5C 380.494,759.866 380.66,758.199 380.5,756.5C 384.821,799.686 389.155,843.02 393.5,886.5C 393.529,894.118 390.529,900.118 384.5,904.5C 382.911,903.379 381.244,903.546 379.5,905C 303.833,905.667 228.167,905.667 152.5,905C 149.438,903.939 146.938,902.106 145,899.5C 144.601,899.728 144.435,900.062 144.5,900.5C 140.773,896.49 139.107,891.657 139.5,886C 146.114,821.474 152.947,756.974 160,692.5C 164.415,680.197 173.248,674.864 186.5,676.5C 186.803,667.749 186.47,659.082 185.5,650.5C 179.45,646.204 174.617,640.204 171,632.5C 167.908,621.74 166.408,610.74 166.5,599.5C 166.47,598.503 166.97,597.836 168,597.5C 170.307,599.966 172.14,599.466 173.5,596C 173.056,594.238 172.556,594.405 172,596.5C 170.926,595.382 169.76,594.382 168.5,593.5C 169.274,592.289 170.107,592.289 171,593.5C 172.158,593.002 172.991,592.169 173.5,591C 173.516,588.682 173.516,586.349 173.5,584C 175.749,583.137 177.582,583.637 179,585.5C 179.374,584.584 179.874,583.75 180.5,583C 176.609,581.037 176.609,579.204 180.5,577.5C 180.065,578.962 180.898,579.962 183,580.5C 183.95,579.978 184.784,579.311 185.5,578.5C 186.423,584.485 187.256,590.485 188,596.5C 188.494,594.866 188.66,593.199 188.5,591.5C 189.656,600.652 190.49,609.985 191,619.5C 192.043,624.279 194.543,627.946 198.5,630.5C 198.918,631.222 199.584,631.722 200.5,632C 239.167,632.667 277.833,632.667 316.5,632C 319.196,631.31 321.363,629.81 323,627.5C 324.803,622.59 326.303,617.59 327.5,612.5C 327.457,611.584 327.124,610.917 326.5,610.5C 327.512,607.748 328.512,605.081 329.5,602.5C 332.889,595.825 335.389,588.159 337,579.5C 337.59,575.703 337.09,572.036 335.5,568.5C 336.718,568.891 337.552,568.224 338,566.5C 338.333,567.167 338.667,567.833 339,568.5C 340.11,566.963 341.61,566.297 343.5,566.5C 343.799,564.396 343.466,562.396 342.5,560.5C 341.803,563.344 340.636,563.011 339,559.5C 337.771,561.947 336.271,562.113 334.5,560C 336.087,559.138 337.754,558.471 339.5,558C 339.167,557.667 338.833,557.333 338.5,557C 339.715,554.904 340.549,555.071 341,557.5C 342.487,556.747 342.654,555.914 341.5,555C 343.441,554.257 345.274,554.424 347,555.5C 347.5,555 348,554.5 348.5,554C 345.592,551.026 345.925,550.192 349.5,551.5C 354.033,560.845 357.033,570.512 358.5,580.5 Z"/></g>
<g><path style="opacity:1" fill="#05179d" d="M 326.5,610.5 C 327.124,610.917 327.457,611.584 327.5,612.5C 326.303,617.59 324.803,622.59 323,627.5C 321.363,629.81 319.196,631.31 316.5,632C 277.833,632.667 239.167,632.667 200.5,632C 199.584,631.722 198.918,631.222 198.5,630.5C 237.471,631.649 276.471,631.815 315.5,631C 317.848,630.654 319.681,629.487 321,627.5C 323.34,621.981 325.173,616.315 326.5,610.5 Z"/></g>
<g><path style="opacity:1" fill="#051d9d" d="M 503.5,685.5 C 502.113,696.38 499.78,707.047 496.5,717.5C 495.903,717.265 495.57,716.765 495.5,716C 498.325,705.168 500.992,695.002 503.5,685.5 Z"/></g>
<g><path style="opacity:1" fill="#0435a9" d="M 353.5,724.5 C 352.965,716.488 352.299,708.488 351.5,700.5C 295.5,700.5 239.5,700.5 183.5,700.5C 182.423,706.782 181.757,713.116 181.5,719.5C 180.842,718.207 180.508,716.707 180.5,715C 181.033,710.17 181.533,705.337 182,700.5C 182.5,700 183,699.5 183.5,699C 239.5,698.333 295.5,698.333 351.5,699C 353.22,705.508 354.22,712.175 354.5,719C 354.494,721.033 354.161,722.866 353.5,724.5 Z"/></g>
<g><path style="opacity:1" fill="#fdfefe" d="M 353.5,724.5 C 357.654,771.696 362.32,818.696 367.5,865.5C 367.833,871.5 368.167,877.5 368.5,883.5C 300.5,883.5 232.5,883.5 164.5,883.5C 164.5,882.5 164.5,881.5 164.5,880.5C 165.632,868.512 166.632,856.512 167.5,844.5C 169.613,828.304 171.613,811.971 173.5,795.5C 174.573,783.839 175.573,772.173 176.5,760.5C 178.395,747.002 180.062,733.335 181.5,719.5C 181.757,713.116 182.423,706.782 183.5,700.5C 239.5,700.5 295.5,700.5 351.5,700.5C 352.299,708.488 352.965,716.488 353.5,724.5 Z"/></g>
<g><path style="opacity:1" fill="#00149c" d="M 803.5,706.5 C 771.943,705.853 740.61,706.519 709.5,708.5C 709.5,707.5 709.5,706.5 709.5,705.5C 741.004,705.168 772.338,705.502 803.5,706.5 Z"/></g>
<g><path style="opacity:1" fill="#0442ad" d="M 215.5,716.5 C 237.445,715.936 245.945,726.269 241,747.5C 229.747,762.099 217.414,763.099 204,750.5C 196.196,735.127 200.03,723.793 215.5,716.5 Z"/></g>
<g><path style="opacity:1" fill="#092ca3" d="M 709.5,708.5 C 706.643,725.595 703.31,742.595 699.5,759.5C 698.876,759.083 698.543,758.416 698.5,757.5C 701.048,746.211 703.381,734.878 705.5,723.5C 705.152,721.303 704.152,719.47 702.5,718C 703.448,717.517 704.448,717.351 705.5,717.5C 705.351,718.552 705.517,719.552 706,720.5C 706.739,716.25 707.906,712.25 709.5,708.5 Z"/></g>
<g><path style="opacity:1" fill="#0f2aa3" d="M 377.5,721.5 C 378.755,733.143 379.755,744.81 380.5,756.5C 380.66,758.199 380.494,759.866 380,761.5C 378.912,752.516 377.912,743.516 377,734.5C 376.186,729.98 376.353,725.646 377.5,721.5 Z"/></g>
<g><path style="opacity:1" fill="#0d249f" d="M 494.5,722.5 C 489.008,739.825 480.674,755.492 469.5,769.5C 479.372,754.061 487.705,738.395 494.5,722.5 Z"/></g>
<g><path style="opacity:1" fill="#051c9d" d="M 698.5,761.5 C 698.119,766.237 697.286,770.904 696,775.5C 695.501,780.823 695.334,786.156 695.5,791.5C 694.353,787.232 694.187,781.565 695,774.5C 695.431,769.262 696.598,764.929 698.5,761.5 Z"/></g>
<g><path style="opacity:1" fill="#051a9c" d="M 176.5,760.5 C 175.573,772.173 174.573,783.839 173.5,795.5C 172.84,794.036 172.507,792.369 172.5,790.5C 173.259,779.708 174.592,769.708 176.5,760.5 Z"/></g>
<g><path style="opacity:1" fill="#0344ae" d="M 208.5,836.5 C 205.474,834.586 202.307,831.919 199,828.5C 194.284,819.75 194.451,811.084 199.5,802.5C 207.748,793.406 217.081,792.239 227.5,799C 238.275,809.084 239.275,820.084 230.5,832C 223.861,837.309 216.528,838.809 208.5,836.5 Z"/></g>
<g><path style="opacity:1" fill="#1029a2" d="M 199.5,802.5 C 194.451,811.084 194.284,819.75 199,828.5C 202.307,831.919 205.474,834.586 208.5,836.5C 197.186,832.001 192.353,823.668 194,811.5C 194.843,807.8 196.676,804.8 199.5,802.5 Z"/></g>
<g><path style="opacity:1" fill="#031b9d" d="M 167.5,844.5 C 166.632,856.512 165.632,868.512 164.5,880.5C 163.84,879.036 163.507,877.369 163.5,875.5C 164.344,864.387 165.677,854.054 167.5,844.5 Z"/></g>
<g><path style="opacity:1" fill="#00109b" d="M 164.5,883.5 C 232.5,883.5 300.5,883.5 368.5,883.5C 368.167,877.5 367.833,871.5 367.5,865.5C 369.062,871.025 369.729,877.359 369.5,884.5C 300.429,884.833 232.096,884.5 164.5,883.5 Z"/></g>
<g><path style="opacity:1" fill="#132aa2" d="M 731.5,856.5 C 735.769,861.271 740.269,865.938 745,870.5C 749.834,881.008 747,888.508 736.5,893C 730.463,893.823 725.463,891.989 721.5,887.5C 724.09,888.128 726.423,889.295 728.5,891C 731.833,891.667 735.167,891.667 738.5,891C 746.828,885.68 748.328,878.847 743,870.5C 738.175,866.522 734.342,861.855 731.5,856.5 Z"/></g>
<g><path style="opacity:1" fill="#0230a8" d="M 384.5,904.5 C 382.363,905.787 380.03,906.621 377.5,907C 303.167,907.667 228.833,907.667 154.5,907C 150.28,906.065 146.947,903.899 144.5,900.5C 144.435,900.062 144.601,899.728 145,899.5C 146.938,902.106 149.438,903.939 152.5,905C 228.167,905.667 303.833,905.667 379.5,905C 381.244,903.546 382.911,903.379 384.5,904.5 Z"/></g>
</svg>
